<svg width="153" height="77" fill="none" xmlns="http://www.w3.org/2000/svg"><path d="M4.781 9.813h143.437A4.783 4.783 0 00153 5.03a4.784 4.784 0 00-4.782-4.78H4.781A4.783 4.783 0 000 5.03a4.783 4.783 0 004.781 4.782zm143.437 23.906H4.781A4.783 4.783 0 000 38.5a4.783 4.783 0 004.781 4.781h143.437a4.783 4.783 0 004.782-4.78 4.783 4.783 0 00-4.782-4.782zm.001 33.469H52.594a4.783 4.783 0 00-4.782 4.78 4.783 4.783 0 004.782 4.782h95.625A4.783 4.783 0 00153 71.969a4.783 4.783 0 00-4.781-4.781z" fill="#fff"/></svg>