<svg width="65" height="65" fill="none" xmlns="http://www.w3.org/2000/svg"><path d="M32.5 0C14.553 0 0 14.553 0 32.5S14.553 65 32.5 65a5.41 5.41 0 005.417-5.417 5.295 5.295 0 00-1.409-3.629 5.366 5.366 0 01-1.354-3.593 5.41 5.41 0 015.417-5.417h6.373C56.911 46.944 65 38.855 65 28.89 65 12.928 50.447 0 32.5 0zM12.639 32.5a5.41 5.41 0 01-5.417-5.417 5.41 5.41 0 015.417-5.416 5.41 5.41 0 015.417 5.416 5.41 5.41 0 01-5.417 5.417zm10.833-14.444a5.41 5.41 0 01-5.416-5.417 5.41 5.41 0 015.416-5.417 5.41 5.41 0 015.417 5.417 5.41 5.41 0 01-5.417 5.417zm18.056 0a5.41 5.41 0 01-5.417-5.417 5.41 5.41 0 015.417-5.417 5.41 5.41 0 015.416 5.417 5.41 5.41 0 01-5.416 5.417zM52.36 32.5a5.41 5.41 0 01-5.417-5.417 5.41 5.41 0 015.417-5.416 5.41 5.41 0 015.417 5.416A5.41 5.41 0 0152.36 32.5z" fill="#fff"/></svg>