<svg width="67" height="68" fill="none" xmlns="http://www.w3.org/2000/svg"><path d="M2 33.625C2 16.159 16.241 2 33.809 2c3.237 0 6.362.481 9.306 1.375" stroke="#2FDAC5" stroke-width="4" stroke-linecap="round" stroke-linejoin="round"/><mask id="a" fill="#fff"><path fill-rule="evenodd" clip-rule="evenodd" d="M26.963 40.43c3.78 3.76 9.91 3.76 13.69 0 3.781-3.758 19.432-30.18 18.049-31.555C57.319 7.5 30.743 23.06 26.962 26.819a9.586 9.586 0 000 13.612zm6.845-4.055a2.758 2.758 0 002.766-2.75 2.758 2.758 0 00-2.766-2.75 2.758 2.758 0 00-2.766 2.75 2.758 2.758 0 002.766 2.75z"/></mask><path fill-rule="evenodd" clip-rule="evenodd" d="M26.963 40.43c3.78 3.76 9.91 3.76 13.69 0 3.781-3.758 19.432-30.18 18.049-31.555C57.319 7.5 30.743 23.06 26.962 26.819a9.586 9.586 0 000 13.612zm6.845-4.055a2.758 2.758 0 002.766-2.75 2.758 2.758 0 00-2.766-2.75 2.758 2.758 0 00-2.766 2.75 2.758 2.758 0 002.766 2.75z" fill="#2FDAC5"/><path d="M40.654 40.43l-.705-.708.705.709zm-13.691 0l.705-.708-.705.709zM58.702 8.876l-.705.71.705-.71zM26.962 26.82l.706.71-.705-.71zM39.95 39.722c-3.391 3.37-8.89 3.37-12.281 0l-1.41 1.418c4.17 4.147 10.93 4.147 15.1 0l-1.41-1.418zM57.997 9.584a.687.687 0 01-.208-.39c-.003-.03.003-.014-.01.076-.026.175-.1.461-.244.87-.284.806-.776 1.925-1.437 3.278-1.317 2.699-3.248 6.225-5.349 9.838-2.099 3.612-4.357 7.295-6.323 10.305-1.991 3.048-3.62 5.31-4.477 6.16l1.41 1.419c1.033-1.028 2.777-3.479 4.741-6.485 1.989-3.044 4.265-6.758 6.379-10.393 2.111-3.634 4.07-7.206 5.416-9.966.672-1.376 1.204-2.576 1.527-3.493.159-.452.282-.879.336-1.243a2.3 2.3 0 00.017-.603c-.024-.2-.1-.524-.368-.791l-1.41 1.418zm-30.33 17.944c.858-.852 3.132-2.472 6.198-4.452 3.028-1.955 6.732-4.2 10.364-6.287 3.635-2.088 7.182-4.009 9.896-5.318 1.362-.657 2.487-1.147 3.3-1.43.41-.142.699-.217.877-.243.09-.013.11-.007.08-.01-.017-.002-.204-.024-.385-.204l1.41-1.418a1.327 1.327 0 00-.79-.364 2.327 2.327 0 00-.602.017c-.364.053-.793.175-1.248.334-.92.32-2.128.85-3.51 1.516-2.776 1.34-6.37 3.286-10.024 5.386-3.657 2.1-7.391 4.364-10.453 6.341-3.024 1.953-5.489 3.686-6.522 4.714l1.41 1.418zm0 12.194a8.586 8.586 0 010-12.194l-1.41-1.418a10.586 10.586 0 000 15.03l1.41-1.418zm7.907-6.097c0 .961-.785 1.75-1.766 1.75v2a3.758 3.758 0 003.766-3.75h-2zm-1.766-1.75c.98 0 1.766.789 1.766 1.75h2a3.758 3.758 0 00-3.766-3.75v2zm-1.766 1.75c0-.961.785-1.75 1.766-1.75v-2a3.758 3.758 0 00-3.766 3.75h2zm1.766 1.75c-.98 0-1.766-.789-1.766-1.75h-2a3.758 3.758 0 003.766 3.75v-2z" fill="#2FDAC5" mask="url(#a)"/><path d="M8.415 50.125c0 1.24-1.012 2.25-2.266 2.25a2.258 2.258 0 01-2.266-2.25c0-1.24 1.012-2.25 2.266-2.25a2.258 2.258 0 012.266 2.25zm11.064 11c0 1.24-1.012 2.25-2.266 2.25a2.258 2.258 0 01-2.266-2.25c0-1.24 1.012-2.25 2.266-2.25a2.258 2.258 0 012.266 2.25zm16.596 4.125c0 1.24-1.012 2.25-2.267 2.25a2.258 2.258 0 01-2.265-2.25c0-1.24 1.011-2.25 2.266-2.25a2.258 2.258 0 012.266 2.25zm16.595-4.125c0 1.24-1.012 2.25-2.266 2.25a2.258 2.258 0 01-2.266-2.25c0-1.24 1.012-2.25 2.266-2.25a2.258 2.258 0 012.266 2.25zm9.681-11c0 1.24-1.012 2.25-2.266 2.25a2.258 2.258 0 01-2.266-2.25c0-1.24 1.012-2.25 2.266-2.25a2.258 2.258 0 012.266 2.25zm4.149-16.5c0 1.24-1.012 2.25-2.266 2.25a2.258 2.258 0 01-2.266-2.25c0-1.24 1.012-2.25 2.266-2.25a2.258 2.258 0 012.266 2.25z" fill="#2FDAC5" stroke="#2FDAC5"/></svg>