<svg width="32" height="22" viewBox="0 0 32 22" fill="none" xmlns="http://www.w3.org/2000/svg">
<path d="M0.25 19.75C0.25 20.7165 1.0335 21.5 2 21.5H30C30.9665 21.5 31.75 20.7165 31.75 19.75C31.75 18.7835 30.9665 18 30 18H2C1.0335 18 0.25 18.7835 0.25 19.75ZM0.25 11C0.25 11.9665 1.0335 12.75 2 12.75H30C30.9665 12.75 31.75 11.9665 31.75 11C31.75 10.0335 30.9665 9.25 30 9.25H2C1.0335 9.25 0.25 10.0335 0.25 11ZM2 0.5C1.0335 0.5 0.25 1.2835 0.25 2.25C0.25 3.2165 1.0335 4 2 4H30C30.9665 4 31.75 3.2165 31.75 2.25C31.75 1.2835 30.9665 0.5 30 0.5H2Z" fill="black"/>
</svg>
