<svg width="92" height="92" viewBox="0 0 92 92" fill="none" xmlns="http://www.w3.org/2000/svg">
<path d="M54.4286 46.0007L90.2515 10.1759C92.5828 7.84564 92.5828 4.07794 90.2515 1.74769C87.9213 -0.582563 84.1537 -0.582563 81.8235 1.74769L45.9995 37.5725L10.1765 1.74769C7.84521 -0.582563 4.07868 -0.582563 1.74847 1.74769C-0.582824 4.07794 -0.582824 7.84564 1.74847 10.1759L37.5714 46.0007L1.74847 81.8255C-0.582824 84.1557 -0.582824 87.9234 1.74847 90.2537C2.90976 91.4161 4.43667 92 5.96249 92C7.48831 92 9.01413 91.4161 10.1765 90.2537L45.9995 54.4289L81.8235 90.2537C82.9859 91.4161 84.5117 92 86.0375 92C87.5633 92 89.0892 91.4161 90.2515 90.2537C92.5828 87.9234 92.5828 84.1557 90.2515 81.8255L54.4286 46.0007Z" fill="white"/>
</svg>
