<svg width="153" height="77" viewBox="0 0 153 77" fill="none" xmlns="http://www.w3.org/2000/svg">
<path d="M4.78113 9.8125H148.218C150.858 9.8125 153 7.67033 153 5.03137C153 2.39202 150.857 0.250244 148.218 0.250244H4.78113C2.14177 0.250244 0 2.39241 0 5.03137C0 7.67033 2.14217 9.8125 4.78113 9.8125Z" fill="white"/>
<path d="M148.218 33.719H4.78113C2.14177 33.719 0 35.8612 0 38.5001C0 41.1391 2.14217 43.2812 4.78113 43.2812H148.218C150.858 43.2812 153 41.1391 153 38.5001C153 35.8612 150.858 33.719 148.218 33.719Z" fill="white"/>
<path d="M148.219 67.1875H52.5936C49.9543 67.1875 47.8125 69.3297 47.8125 71.9686C47.8125 74.608 49.9547 76.7498 52.5936 76.7498H148.219C150.858 76.7498 153 74.6076 153 71.9686C153 69.3293 150.858 67.1875 148.219 67.1875Z" fill="white"/>
</svg>
