<svg width="65" height="65" viewBox="0 0 65 65" fill="none" xmlns="http://www.w3.org/2000/svg">
<path d="M32.5 0C14.5527 0 0 14.5527 0 32.5C0 50.4473 14.5527 65 32.5 65C35.4973 65 37.9167 62.5806 37.9167 59.5833C37.9167 58.175 37.3931 56.9111 36.5083 55.9542C35.6598 54.9973 35.1542 53.7514 35.1542 52.3611C35.1542 49.3638 37.5736 46.9444 40.5708 46.9444H46.9444C56.9111 46.9444 65 38.8554 65 28.8888C65 12.9277 50.4473 0 32.5 0ZM12.6389 32.5C9.64167 32.5 7.22228 30.0806 7.22228 27.0833C7.22228 24.0861 9.64167 21.6667 12.6389 21.6667C15.6362 21.6667 18.0556 24.0861 18.0556 27.0833C18.0556 30.0806 15.6361 32.5 12.6389 32.5ZM23.4723 18.0556C20.475 18.0556 18.0556 15.6362 18.0556 12.6389C18.0556 9.64167 20.475 7.22228 23.4723 7.22228C26.4696 7.22228 28.8889 9.64167 28.8889 12.6389C28.8889 15.6362 26.4694 18.0556 23.4723 18.0556ZM41.5277 18.0556C38.5304 18.0556 36.1111 15.6362 36.1111 12.6389C36.1111 9.64167 38.5304 7.22228 41.5277 7.22228C44.525 7.22228 46.9444 9.64167 46.9444 12.6389C46.9444 15.6362 44.525 18.0556 41.5277 18.0556ZM52.3611 32.5C49.3638 32.5 46.9444 30.0806 46.9444 27.0833C46.9444 24.0861 49.3638 21.6667 52.3611 21.6667C55.3583 21.6667 57.7777 24.0861 57.7777 27.0833C57.7777 30.0806 55.3583 32.5 52.3611 32.5Z" fill="black"/>
</svg>
